<?xml version="1.0" encoding="utf-8"?>
<!-- Generator: Adobe Illustrator 23.0.2, SVG Export Plug-In . SVG Version: 6.00 Build 0)  -->
<svg version="1.1" xmlns="http://www.w3.org/2000/svg" xmlns:xlink="http://www.w3.org/1999/xlink" x="0px" y="0px"
	 viewBox="0 0 100 125" style="enable-background:new 0 0 100 125;" xml:space="preserve">
<style type="text/css">
	.st0{fill:#FFE000;}
</style>
<g id="Layer_2">
</g>
<g id="Layer_1">
	<g>
		<path class="st0" d="M71.8,46.9c1.8-1.6,0.9-4.6-1.5-4.8l-11.1-0.9c-1-0.1-1.9-0.7-2.3-1.7l-4.3-10.3c-0.9-2.2-4.1-2.2-5,0
			l-4.3,10.3c-0.4,0.9-1.3,1.6-2.3,1.7l-11,1c-2.4,0.2-3.4,3.2-1.5,4.8l8.4,7.2c0.8,0.7,1.1,1.7,0.9,2.7l-2.6,10.8
			c-0.6,2.3,2,4.2,4,2.9l9.5-5.8c0.9-0.5,2-0.5,2.8,0l9.5,5.8c2.1,1.3,4.6-0.6,4-2.9l-2.6-10.8c-0.2-1,0.1-2,0.9-2.7L71.8,46.9z"/>
		<path class="st0" d="M50.1,17.6c1.7,0,3-1.4,3-3v-9c0-1.7-1.4-3-3-3s-3,1.4-3,3v9C47.1,16.2,48.5,17.6,50.1,17.6z"/>
		<path class="st0" d="M22.9,27c0.6,0.6,1.4,0.9,2.1,0.9c0.8,0,1.5-0.3,2.1-0.9c1.2-1.2,1.2-3.1,0-4.3l-6.4-6.4
			c-1.2-1.2-3.1-1.2-4.3,0c-1.2,1.2-1.2,3.1,0,4.3L22.9,27z"/>
		<path class="st0" d="M17.6,49.9c0-1.7-1.4-3-3-3h-9c-1.7,0-3,1.3-3,3s1.4,3,3,3h9C16.2,52.9,17.6,51.5,17.6,49.9z"/>
		<path class="st0" d="M22.7,72.8l-6.4,6.4c-1.2,1.2-1.2,3.1,0,4.3c0.6,0.6,1.4,0.9,2.1,0.9s1.5-0.3,2.1-0.9l6.4-6.4
			c1.2-1.2,1.2-3.1,0-4.3C25.8,71.7,23.9,71.7,22.7,72.8z"/>
		<path class="st0" d="M49.9,82.4c-1.7,0-3,1.4-3,3v9c0,1.7,1.4,3,3,3s3-1.4,3-3v-9C52.9,83.8,51.5,82.4,49.9,82.4z"/>
		<path class="st0" d="M77.1,73c-1.2-1.2-3.1-1.2-4.3,0c-1.2,1.2-1.2,3.1,0,4.3l6.4,6.4c0.6,0.6,1.4,0.9,2.1,0.9s1.5-0.3,2.1-0.9
			c1.2-1.2,1.2-3.1,0-4.3L77.1,73z"/>
		<path class="st0" d="M94.5,47.1h-9c-1.7,0-3,1.4-3,3s1.4,3,3,3h9c1.7,0,3-1.4,3-3S96.1,47.1,94.5,47.1z"/>
		<path class="st0" d="M75.1,28c0.8,0,1.5-0.3,2.1-0.9l6.4-6.4c1.2-1.2,1.2-3.1,0-4.3s-3.1-1.2-4.3,0L73,22.9
			c-1.2,1.2-1.2,3.1,0,4.3C73.6,27.8,74.4,28,75.1,28z"/>
	</g>
</g>
</svg>
